<?xml version="1.0" standalone="no"?>
<!DOCTYPE svg PUBLIC "-//W3C//DTD SVG 20010904//EN"
 "http://www.w3.org/TR/2001/REC-SVG-20010904/DTD/svg10.dtd">
<svg version="1.0" xmlns="http://www.w3.org/2000/svg"
 width="1806.000000pt" height="1806.000000pt" viewBox="0 0 1806.000000 1806.000000"
 preserveAspectRatio="xMidYMid meet">
<metadata>
Created by potrace 1.11, written by Peter Selinger 2001-2013
</metadata>
<g transform="translate(0.000000,1806.000000) scale(0.100000,-0.100000)"
fill="#000000" stroke="none">
<path d="M8725 18054 c-1366 -60 -2544 -358 -3715 -940 -709 -353 -1320 -763
-1937 -1299 -191 -166 -662 -637 -828 -828 -697 -802 -1229 -1671 -1610 -2631
-736 -1856 -832 -3942 -270 -5866 367 -1255 999 -2403 1881 -3418 165 -190
637 -662 827 -827 609 -530 1228 -946 1932 -1297 2054 -1028 4449 -1226 6665
-554 834 253 1643 637 2380 1131 2063 1381 3469 3549 3880 5980 436 2581 -243
5182 -1881 7205 -394 487 -853 946 -1339 1339 -838 678 -1805 1209 -2818 1547
-725 242 -1476 388 -2277 444 -156 11 -751 20 -890 14z m625 -364 c1268 -51
2442 -351 3553 -907 847 -423 1572 -947 2252 -1628 842 -841 1466 -1782 1913
-2880 583 -1435 766 -3032 527 -4582 -228 -1474 -847 -2883 -1782 -4056 -382
-480 -875 -977 -1343 -1353 -905 -729 -1928 -1261 -3045 -1584 -1514 -438
-3181 -447 -4701 -25 -1768 491 -3313 1513 -4469 2955 -1746 2178 -2328 5095
-1554 7795 672 2346 2336 4327 4534 5396 1285 625 2709 926 4115 869z"/>
<path d="M8645 17133 c-853 -34 -1657 -192 -2410 -473 -369 -137 -862 -372
-1190 -564 -1080 -636 -1989 -1530 -2617 -2576 -106 -176 -286 -517 -249 -470
11 14 76 103 145 198 455 627 987 1192 1586 1682 1196 978 2629 1603 4140
1805 414 55 621 68 1110 69 448 1 565 -4 910 -40 650 -66 1344 -226 1990 -456
276 -98 473 -179 858 -354 28 -13 52 -22 52 -20 0 7 -216 144 -365 231 -1152
674 -2581 1023 -3960 968z"/>
<path d="M8440 16039 c-656 -47 -1323 -197 -1928 -433 -1343 -524 -2495 -1501
-3202 -2716 -73 -125 -236 -447 -203 -400 69 98 309 412 385 503 409 496 916
977 1413 1339 907 660 1910 1090 2993 1283 1363 242 2767 93 4085 -434 155
-62 223 -91 410 -175 31 -14 57 -24 57 -22 0 7 -288 189 -400 253 -648 370
-1370 622 -2115 738 -363 56 -509 67 -955 70 -228 2 -471 -1 -540 -6z"/>
<path d="M8585 14964 c-1659 -104 -3156 -926 -4104 -2253 -152 -213 -371 -588
-436 -746 -21 -50 -20 -49 108 120 839 1110 1973 1914 3237 2296 973 293 2008
343 3020 143 480 -95 952 -246 1468 -470 17 -8 32 -13 32 -10 0 9 -315 210
-430 274 -535 298 -1137 502 -1740 591 -287 43 -420 52 -760 56 -184 1 -362 1
-395 -1z"/>
<path d="M5840 11484 c-585 -69 -1073 -296 -1474 -684 -201 -195 -355 -403
-480 -649 -186 -365 -269 -711 -269 -1121 0 -405 83 -753 265 -1115 120 -239
284 -461 484 -655 429 -415 988 -659 1579 -688 76 -4 2020 -6 4321 -4 l4184 2
0 490 0 490 -367 2 -368 3 -3 863 -2 862 -490 0 -490 0 0 -865 0 -865 -370 0
-370 0 0 1480 0 1480 -495 0 -495 0 0 -1480 0 -1480 -370 0 -370 0 0 1480 0
1480 -490 0 -490 0 -2 -1477 -3 -1478 -607 -3 c-335 -1 -608 0 -608 3 0 3 35
59 79 125 531 803 535 1877 10 2686 -190 291 -420 524 -708 716 -295 195 -634
327 -986 384 -96 16 -529 28 -615 18z m495 -999 c273 -48 547 -186 752 -379
622 -586 623 -1566 1 -2151 -406 -381 -994 -503 -1513 -313 -118 43 -280 131
-376 203 -113 84 -271 251 -347 364 -106 158 -182 339 -224 534 -31 147 -31
427 0 574 76 351 262 653 540 875 202 161 479 275 743 307 107 13 308 6 424
-14z"/>
<path d="M12730 10015 l0 -495 490 0 490 0 0 495 0 495 -490 0 -490 0 0 -495z"/>
<path d="M13995 6087 c-168 -235 -422 -533 -655 -771 -931 -949 -2061 -1560
-3316 -1795 -627 -117 -1307 -136 -1944 -55 -605 77 -1314 277 -1845 519 -43
19 -80 34 -82 32 -1 -2 59 -44 135 -94 697 -460 1470 -724 2377 -815 201 -20
818 -17 1025 5 1142 122 2122 535 2995 1261 159 133 506 480 635 636 188 226
355 463 493 698 68 113 221 411 215 417 -2 2 -16 -15 -33 -38z"/>
<path d="M14890 5483 c-456 -637 -1037 -1232 -1665 -1704 -1596 -1201 -3607
-1681 -5605 -1338 -605 104 -1299 317 -1851 569 -74 34 -141 64 -149 67 -30
10 248 -170 383 -249 679 -393 1480 -661 2297 -768 373 -48 915 -65 1295 -40
990 66 1943 351 2798 836 996 566 1842 1404 2387 2364 90 160 194 360 188 365
-2 1 -37 -45 -78 -102z"/>
<path d="M15840 4953 c-766 -1098 -1777 -2021 -2908 -2655 -900 -504 -1925
-844 -2955 -978 -592 -77 -1283 -90 -1877 -34 -679 63 -1301 197 -1975 424
-315 106 -761 288 -996 405 -100 50 -80 33 88 -74 468 -298 1013 -557 1547
-735 578 -193 1144 -307 1806 -362 250 -21 818 -24 1090 -5 1486 100 2874 611
4055 1490 785 586 1447 1317 1936 2139 88 148 255 462 246 462 -2 0 -28 -35
-57 -77z"/>
</g>
</svg>
